<svg width="24" height="24" viewBox="0 0 24 24" fill="none" xmlns="http://www.w3.org/2000/svg">
<path fill-rule="evenodd" clip-rule="evenodd" d="M4.04891 5.53948C4.0034 5.81254 4 6.2112 4 7.00004L3.99999 7.00374V13.1332C4.00051 13.7872 4.00592 14.1595 4.04965 14.4302C4.08547 14.6519 4.1333 14.7192 4.20701 14.7929C4.29839 14.8842 4.35365 14.9202 4.53941 14.9511C4.81035 14.9963 5.20494 15 5.98166 15C6.01407 14.9995 6.04674 15.0005 6.07958 15.0032C6.20905 15.0134 6.33158 15.0482 6.44249 15.103C6.56994 15.1658 6.68041 15.2542 6.76865 15.3604C6.86192 15.4723 6.93119 15.605 6.96856 15.7504C6.99825 15.8652 7.0078 15.9868 6.99397 16.1103C6.99008 16.1457 6.98435 16.1806 6.97686 16.2148L6.47652 18.7165L11.4117 15.1914C11.4773 15.1435 11.549 15.1035 11.6254 15.0726C11.7508 15.0219 11.883 14.9981 12.0142 15.0001L18 15.0001H18.0044C18.7391 15.0001 19.1422 14.9969 19.4301 14.9504C19.6518 14.9146 19.7191 14.8667 19.7928 14.793C19.8842 14.7017 19.9201 14.6464 19.9511 14.4606C19.9966 14.1876 20 13.7889 20 13.0001L20 12.9952V7.00004L20 6.99218C20 6.25963 19.9968 5.85739 19.9503 5.5699C19.9145 5.34822 19.8667 5.28092 19.793 5.20722C19.7016 5.11586 19.6463 5.07992 19.4606 5.04895C19.1879 5.0035 18.7899 5.00005 18.0032 5.00004H18H6L5.99214 5.00001C5.25958 5.00005 4.85735 5.00326 4.56985 5.04972C4.34818 5.08554 4.28087 5.13337 4.20718 5.20708C4.11582 5.29846 4.07987 5.35372 4.04891 5.53948ZM5.58817 21.8088L12.3204 17.0001H17.9956L18 17.0001L18.0733 17.0001C18.7118 17.0002 19.2819 17.0003 19.7492 16.9248C20.3011 16.8356 20.7809 16.6334 21.2072 16.2071C21.6158 15.7984 21.8298 15.3537 21.9239 14.7895C22.0002 14.3313 22.0001 13.7583 22 13.0834L22 13.0048L22 13V7.00791L22 6.99999L22 6.92668V6.92662C22.0001 6.28822 22.0002 5.71811 21.9247 5.25088C21.8355 4.69897 21.6334 4.21912 21.207 3.79287C20.7984 3.38428 20.3536 3.17022 19.7894 3.07617C19.3312 2.9998 18.7582 2.99991 18.0834 3.00003L18 3.00004H6.00784L5.99995 3.00001L5.92664 3.00001L5.92663 3.00001C5.28821 2.99991 4.71808 2.99983 4.25083 3.07533C3.69893 3.1645 3.21908 3.36667 2.79282 3.79301C2.38423 4.20168 2.17018 4.64642 2.07613 5.21065C1.99976 5.66883 1.99986 6.2418 1.99999 6.91667L2 6.99648L1.99999 7.00005L1.99999 12.9902L1.99995 13.0001L1.99994 13.0734V13.0734L1.99999 13.2691L1.99999 14.0001C1.99999 14.0667 2.00651 14.1317 2.01893 14.1947C2.03001 14.3923 2.04754 14.5777 2.07526 14.7492C2.16443 15.3011 2.3666 15.781 2.79294 16.2072C3.20161 16.6158 3.64635 16.8299 4.21058 16.9239C4.38521 16.953 4.57652 16.971 4.78378 16.9821L4.0206 20.7981C4.01783 20.8115 4.01533 20.8251 4.01311 20.8386C3.99228 20.9654 3.99641 21.091 4.02202 21.21C4.04751 21.329 4.09525 21.4452 4.16628 21.5523C4.1891 21.5867 4.21403 21.6198 4.24094 21.6512C4.29446 21.7137 4.35439 21.7682 4.41904 21.8143C4.53068 21.8941 4.66062 21.952 4.80388 21.9807C4.95515 22.0109 5.10527 22.0053 5.24544 21.9697C5.34249 21.9452 5.43717 21.9056 5.5261 21.8505C5.5473 21.8374 5.56801 21.8235 5.58817 21.8088Z" fill="black"/>
<path d="M18 8L6 8" stroke="black" stroke-width="2" stroke-linecap="round"/>
<path d="M16 12L6 12" stroke="black" stroke-width="2" stroke-linecap="round"/>
</svg>
