<svg width="24" height="24" viewBox="0 0 24 24" fill="none" xmlns="http://www.w3.org/2000/svg">
<g clip-path="url(#clip0_43_1292)">
<path fill-rule="evenodd" clip-rule="evenodd" d="M17.4801 18.8943C17.9682 19.3824 18.7597 19.3824 19.2478 18.8943C19.736 18.4061 19.736 17.6147 19.2478 17.1265L13.9445 11.8232L19.0711 6.6967C19.5592 6.20854 19.5592 5.41709 19.0711 4.92893C18.5829 4.44078 17.7914 4.44078 17.3033 4.92893L12.1768 10.0555L6.87346 4.75216C6.38531 4.264 5.59385 4.264 5.10569 4.75216C4.61754 5.24031 4.61754 6.03177 5.10569 6.51992L10.409 11.8232L4.92892 17.3033C4.44076 17.7915 4.44076 18.5829 4.92892 19.0711C5.41707 19.5592 6.20853 19.5592 6.69668 19.0711L12.1768 13.591L17.4801 18.8943Z" fill="black"/>
</g>
<defs>
<clipPath id="clip0_43_1292">
<rect width="24" height="24" fill="white"/>
</clipPath>
</defs>
</svg>
