<svg width="24" height="24" viewBox="0 0 24 24" fill="none" xmlns="http://www.w3.org/2000/svg">
<path d="M12 21L4.5 19" stroke="black" stroke-width="2" stroke-linecap="round"/>
<path d="M12 2.99995L12 21" stroke="black" stroke-width="2" stroke-linecap="round"/>
<path d="M15.5 5H12" stroke="black" stroke-width="2" stroke-linecap="round"/>
<path d="M15.4211 19H13" stroke="black" stroke-width="2" stroke-linecap="round"/>
<path fill-rule="evenodd" clip-rule="evenodd" d="M12.9653 2.7388C13.1095 3.27192 12.7943 3.82103 12.2612 3.96529L6.91107 5.41301L6.90981 5.41577L5.35902 5.83424L4.54449 6.05403C4.34296 6.08937 4.27806 6.1363 4.20726 6.20711C4.1159 6.29849 4.07996 6.35375 4.04899 6.53951C4.00348 6.81257 4.00008 7.21123 4.00008 8.00008V8.00011V8.00014V16L4.00001 16.0118C4.00006 16.7419 4.00335 17.1432 4.04972 17.4302C4.08554 17.6519 4.13337 17.7192 4.20708 17.7929C4.28992 17.8757 4.34308 17.913 4.4907 17.9423L5.4433 18.2031L6.92 18.6074C6.97152 18.7279 7.00004 18.8606 7.00004 19C7.00004 19.5523 6.55233 20 6.00004 20L5.91667 20C5.2418 20.0002 4.66883 20.0003 4.21065 19.9239C3.64642 19.8299 3.20168 19.6158 2.79301 19.2072C2.36667 18.781 2.1645 18.3011 2.07533 17.7492C1.99983 17.282 1.99991 16.7118 2.00001 16.0734L2.00001 16.0734L2.00001 16.0001L2.00008 15.9882L2.00008 8.00026L2.00008 8.00008L2.00007 7.9167C1.99995 7.24183 1.99984 6.66886 2.07621 6.21068C2.17026 5.64646 2.38432 5.20171 2.7929 4.79304C3.17457 4.4113 3.5992 4.20928 4.08006 4.10718L4.08879 4.10478L11.7388 2.03472C12.2719 1.89046 12.821 2.20569 12.9653 2.7388Z" fill="black"/>
<path d="M21 12L19 10" stroke="black" stroke-width="2" stroke-linecap="round"/>
<path d="M15.5 19V5" stroke="black" stroke-width="2" stroke-linecap="round"/>
<path d="M21 12L19 14" stroke="black" stroke-width="2" stroke-linecap="round"/>
</svg>
