<svg width="24" height="24" viewBox="0 0 24 24" fill="none" xmlns="http://www.w3.org/2000/svg">
<path d="M17.75 3V4.15279C17.75 5.36151 17.4215 6.5475 16.7996 7.58397V7.58397C16.4355 8.19079 15.9772 8.73579 15.4418 9.19852L14.7368 9.80782C14.5889 9.9356 14.4546 10.0782 14.3359 10.2335V10.2335C13.9559 10.7307 13.75 11.3391 13.75 11.9648V12" stroke="black" stroke-width="2"/>
<path d="M6.25 21V19.8472C6.25 18.6385 6.5785 17.4525 7.20038 16.416V16.416C7.56447 15.8092 8.02283 15.2642 8.55825 14.8015L9.26324 14.1922C9.4111 14.0644 9.54542 13.9218 9.6641 13.7665V13.7665C10.0441 13.2693 10.25 12.6609 10.25 12.0352V12" stroke="black" stroke-width="2"/>
<path d="M6.25 3V4.15279C6.25 5.36151 6.5785 6.5475 7.20038 7.58397V7.58397C7.56447 8.19079 8.02283 8.73579 8.55825 9.19852L9.26324 9.80782C9.4111 9.9356 9.54542 10.0782 9.6641 10.2335V10.2335C10.0441 10.7307 10.25 11.3391 10.25 11.9648V12" stroke="black" stroke-width="2"/>
<path d="M17.75 21V19.8472C17.75 18.6385 17.4215 17.4525 16.7996 16.416V16.416C16.4355 15.8092 15.9772 15.2642 15.4418 14.8015L14.7368 14.1922C14.5889 14.0644 14.4546 13.9218 14.3359 13.7665V13.7665C13.9559 13.2693 13.75 12.6609 13.75 12.0352V12" stroke="black" stroke-width="2"/>
<path d="M6.25 3L17.75 3" stroke="black" stroke-width="2" stroke-linecap="round"/>
<path d="M6.25 21L17.75 21" stroke="black" stroke-width="2" stroke-linecap="round"/>
</svg>
