<svg width="24" height="24" viewBox="0 0 24 24" fill="none" xmlns="http://www.w3.org/2000/svg">
<path d="M12 21V18" stroke="black" stroke-width="2" stroke-linecap="round"/>
<path d="M9 21H12" stroke="black" stroke-width="2" stroke-linecap="round"/>
<path fill-rule="evenodd" clip-rule="evenodd" d="M18.1586 15.3302C18.6953 14.3399 19 13.2055 19 12C19 11.4477 18.5523 11 18 11C17.4477 11 17 11.4477 17 12C17 12.6449 16.8779 13.2612 16.6556 13.8272L18.1586 15.3302ZM15.8645 13.0361C15.9529 12.7056 16 12.3583 16 12V6C16 3.79086 14.2091 2 12 2C10.0496 2 8.4253 3.39587 8.07152 5.24309L10 7.17157V6C10 4.89543 10.8954 4 12 4C13.1046 4 14 4.89543 14 6V11.1716L15.8645 13.0361ZM8 10.8284L13.0361 15.8645C12.7056 15.9529 12.3583 16 12 16C9.79086 16 8 14.2091 8 12V10.8284ZM13.8272 16.6556L15.3302 18.1586C14.3399 18.6953 13.2055 19 12 19C8.13401 19 5 15.866 5 12C5 11.4477 5.44772 11 6 11C6.55228 11 7 11.4477 7 12C7 14.7614 9.23858 17 12 17C12.6449 17 13.2612 16.8779 13.8272 16.6556ZM12 20C11.4477 20 11 20.4477 11 21C11 21.5523 11.4477 22 12 22H15C15.5523 22 16 21.5523 16 21C16 20.4477 15.5523 20 15 20H12Z" fill="black"/>
<path d="M5 5L19 19" stroke="black" stroke-width="2" stroke-linecap="round"/>
</svg>
