<svg width="24" height="24" viewBox="0 0 24 24" fill="none" xmlns="http://www.w3.org/2000/svg">
<path fill-rule="evenodd" clip-rule="evenodd" d="M3.99999 9.91081C4.0003 9.18062 4.00512 8.80188 4.04889 8.5393C4.07985 8.35353 4.11579 8.29828 4.20715 8.2069C4.28085 8.13319 4.34815 8.08535 4.56983 8.04953C4.85835 8.00292 5.26243 7.99985 5.99997 7.99983C6.55225 7.99982 6.99996 7.55209 6.99995 6.99981C6.99993 6.44752 6.55221 5.99982 5.99992 5.99983L5.92662 5.99982L5.92661 5.99982C5.28818 5.99973 4.71806 5.99964 4.25081 6.07514C3.6989 6.16432 3.21906 6.36648 2.7928 6.79282C2.38421 7.2015 2.17015 7.64624 2.0761 8.21046C2.04526 8.39549 2.02689 8.59925 2.01596 8.82087C2.00547 8.87893 1.99999 8.93874 1.99999 8.99983L1.99999 9.72981L1.99997 9.91649L1.99998 9.99986L1.99999 10.0058L1.99999 13.99L1.99995 13.9999L1.99994 14.0732V14.0732L1.99999 14.2689L1.99999 14.9998C1.99999 15.0664 2.0065 15.1315 2.01892 15.1945C2.03001 15.392 2.04754 15.5775 2.07526 15.749C2.16443 16.3009 2.3666 16.7808 2.79294 17.207C3.20161 17.6156 3.64635 17.8297 4.21058 17.9237C4.66875 18.0001 5.24172 18 5.91658 17.9999H5.9166L5.99998 17.9999H11.9921L12 17.9999L12.0733 17.9999C12.7118 18 13.2819 18.0001 13.7491 17.9246C14.301 17.8354 14.7809 17.6332 15.2072 17.2069C15.6157 16.7982 15.8298 16.3535 15.9238 15.7893C16.0002 15.3311 16.0001 14.7581 16 14.0833V14.0832L16 14H14C14 14.7888 13.9966 15.1874 13.9511 15.4604C13.9201 15.6462 13.8842 15.7014 13.7928 15.7928C13.7191 15.8665 13.6518 15.9144 13.4301 15.9502C13.1426 15.9966 12.7404 15.9999 12.0077 15.9999L11.9999 15.9999H5.99998C5.21113 15.9999 4.81247 15.9965 4.53941 15.951C4.35365 15.92 4.29839 15.884 4.20701 15.7927C4.1333 15.719 4.08547 15.6517 4.04965 15.43C4.00592 15.1593 4.00051 14.787 3.99999 14.133V9.91081ZM15.0148 11H14.9849C14.9214 10.9991 14.8586 10.992 14.7973 10.9793C14.6662 10.9523 14.5443 10.8996 14.4374 10.8267C14.3058 10.7373 14.1947 10.6161 14.117 10.4696C14.0685 10.3787 14.0337 10.2794 14.0152 10.1744C14.0033 10.1078 13.9984 10.0412 14 9.97532C13.9999 9.25332 13.9964 8.85502 13.9503 8.56972C13.9145 8.34804 13.8666 8.28073 13.7929 8.20704C13.7016 8.11568 13.6463 8.07974 13.4605 8.04877C13.1875 8.00326 12.7888 7.99986 12 7.99986C11.4477 7.99986 11 7.55215 11 6.99986C11 6.44758 11.4477 5.99986 12 5.99986L12.0834 5.99985C12.7582 5.99972 13.3312 5.99962 13.7894 6.07599C14.3536 6.17004 14.7983 6.38409 15.207 6.79268C15.6334 7.21894 15.8355 7.69879 15.9247 8.25069C15.9437 8.36841 15.9579 8.49266 15.9686 8.62289L20.6838 7.05112C21.2077 6.87647 21.774 7.15962 21.9487 7.68357C22.1233 8.20751 21.8402 8.77383 21.3162 8.94848L15.3376 10.9414C15.2838 10.9607 15.2278 10.9755 15.1702 10.9854C15.1183 10.9944 15.0664 10.9992 15.0148 11Z" fill="black"/>
<path d="M15 15L15 9" stroke="black" stroke-width="2" stroke-linecap="round"/>
<path d="M21 16L21 8.00002" stroke="black" stroke-width="2" stroke-linecap="round"/>
<path d="M21 16L15 14" stroke="black" stroke-width="2" stroke-linecap="round"/>
<path d="M6 7H12" stroke="black" stroke-width="2" stroke-linecap="round"/>
</svg>
