<svg width="24" height="24" viewBox="0 0 24 24" fill="none" xmlns="http://www.w3.org/2000/svg">
<path fill-rule="evenodd" clip-rule="evenodd" d="M14.0371 17.8656L12.1714 15.9998C12.1187 15.9998 12.0642 15.9999 12.0077 15.9999L11.9999 15.9998H5.99997C5.21112 15.9998 4.81246 15.9964 4.53941 15.9509C4.35364 15.92 4.29838 15.884 4.20701 15.7927C4.1333 15.719 4.08546 15.6517 4.04964 15.43C4.00591 15.1593 4.0005 14.787 3.99999 14.133V9.91078C4.00029 9.1806 4.00511 8.80186 4.04888 8.53927C4.07984 8.35351 4.11579 8.29825 4.20715 8.20687C4.23641 8.1776 4.26468 8.15241 4.302 8.13043L2.88049 6.70891C2.851 6.73586 2.82177 6.76381 2.79279 6.7928C2.3842 7.20147 2.17015 7.64622 2.0761 8.21044C2.04526 8.39547 2.02689 8.59922 2.01595 8.82085C2.00546 8.87891 1.99999 8.93872 1.99999 8.9998L1.99997 9.99984L1.99999 10.0058L1.99999 13.99L1.99994 13.9999L1.99999 14.9998C1.99999 15.0664 2.0065 15.1315 2.01892 15.1944C2.03 15.392 2.04753 15.5774 2.07525 15.749C2.16443 16.3009 2.36659 16.7808 2.79293 17.207C3.2016 17.6156 3.64635 17.8297 4.21057 17.9237C4.66875 18.0001 5.24171 18 5.91657 17.9998L11.9921 17.9998L12 17.9999L12.0733 17.9999C12.7118 18 13.2819 18.0001 13.7491 17.9246C13.8474 17.9087 13.9433 17.8892 14.0371 17.8656ZM7.8284 5.99998H11.9831L12 5.99984L12.0833 5.99983C12.7582 5.9997 13.3312 5.99959 13.7894 6.07597C14.3536 6.17001 14.7983 6.38407 15.207 6.79266C15.6333 7.21892 15.8355 7.69877 15.9247 8.25067C15.9437 8.36839 15.9579 8.49264 15.9686 8.62287L20.6727 7.0548C20.6972 7.04628 20.7223 7.0387 20.7477 7.03209C20.9394 6.98191 21.1343 6.99121 21.3116 7.04951C21.3667 7.06754 21.4196 7.09022 21.4699 7.11707C21.6506 7.21324 21.8023 7.3647 21.897 7.55757C21.9376 7.63969 21.9673 7.72817 21.984 7.82113C21.9964 7.88877 22.0016 7.95649 22 8.02337V15.9766C22.0014 16.0374 21.9973 16.0988 21.9872 16.1602C21.9442 16.4275 21.7952 16.6594 21.5846 16.8114C21.4677 16.8957 21.3318 16.9555 21.1846 16.983C21.0728 17.0041 20.9563 17.0063 20.8398 16.9872C20.7783 16.9773 20.7188 16.9618 20.6616 16.9413L17.8237 15.9953L14 12.1716V10.0242C13.9996 10.0078 13.9996 9.99154 14 9.97529C13.9999 9.2533 13.9964 8.855 13.9503 8.56969C13.9145 8.34801 13.8666 8.28071 13.7929 8.20702C13.7016 8.11565 13.6463 8.07971 13.4605 8.04875C13.1894 8.00356 12.7945 7.99989 12.0168 7.99984L12 7.99998H9.8284L7.8284 5.99998ZM20 14.6126L16 13.2792V10.7206L20 9.38722V14.6126Z" fill="black"/>
<path d="M3.5 4.5L18 19" stroke="black" stroke-width="2" stroke-linecap="round"/>
</svg>
